<?xml version="1.0" encoding="utf-8" ?><svg xmlns="http://www.w3.org/2000/svg" xmlns:xlink="http://www.w3.org/1999/xlink" width="402" height="485" viewBox="0 0 402 485"><clipPath id="cl_5"><rect y="3.0517578e-05" width="402" height="485"/></clipPath><g clip-path="url(#cl_5)"><path fill="#FECF1D" transform="matrix(0.392962 0 0 0.39335 0 3.05176e-05)" d="M733.344 1233L290.525 1233L290.488 1120.84L290.372 1036.32C290.362 1031.91 290.311 1027.23 290.258 1022.45C290.126 1010.31 289.986 997.47 290.476 986.508C284.72 981.228 275.504 969.704 270.571 963.353C232.443 914.277 222.513 862.729 208.604 804.026C197.203 750.543 189.354 696.362 185.105 641.84C184.015 626.727 183.952 612.089 182.31 596.698C181.404 588.2 181.682 578.566 181.956 569.056C182.149 562.367 182.34 555.738 182.116 549.61C181.944 544.928 182.666 539.734 183.399 534.463C184.238 528.43 185.091 522.296 184.633 516.715C184.807 500.028 188.232 482.657 190.209 466.086C184.827 465.799 176.181 463.28 170.653 461.896C139.236 454.021 111.075 441.063 87.3286 418.582C59.3928 392.131 45.1491 359.965 39.221 322.299C38.2142 315.902 38.4406 307.619 37.9335 301.013C37.5011 295.383 36.8643 289.319 36.7114 283.701C36.6442 281.233 36.9438 278.371 37.2411 275.53C37.4697 273.346 37.697 271.174 37.7549 269.207C38.2573 252.132 40.7343 237.767 53.2665 224.963C62.1864 215.849 76.9302 210.421 89.6432 210.086C94.9163 209.946 105.423 212.791 111.288 214.379C111.54 214.447 111.783 214.513 112.017 214.576C125.687 218.304 139.012 223.195 151.847 229.197C184.134 244.644 228.541 277.024 252.792 303.028C263.204 285.867 279.139 270.009 293.563 256.261L293.414 256.033C287.661 247.378 279.547 229.77 275.29 219.935C260.331 185.398 244.325 140.529 237.901 103.373C235.997 98.0849 227.192 93.9084 223.396 84.1314C218.566 71.6864 218.546 56.9151 223.51 44.5317C226.897 36.0756 236.461 26.3762 244.499 22.287C247.251 20.8873 252.86 19.4509 256.114 18.1367L257.299 17.6503L276.609 17.6503L277.555 18.0903C294.529 25.8241 302.398 27.0569 310.409 46.4929C315.16 58.02 316.361 79.623 307.099 89.0946C309.869 97.6028 311.743 106.539 314.164 115.239C318.777 131.937 324.006 148.459 329.834 164.773C334.001 176.246 339.951 188.642 344.491 200.165C346.68 205.715 350.055 211.412 352.15 217.237C365.072 208.526 397.234 199.243 412.753 195.128C417.124 188.805 421.407 181.645 426.562 176.065C459.123 140.831 511.33 124.005 556.07 146.279C571.799 154.108 586.279 163.158 597.802 176.517C600.97 180.19 609.535 193.904 612.201 195.497C625.783 198.7 660.859 209.201 671.452 217.274C685.39 224.746 696.732 231.466 709.552 240.573C714.216 243.887 726.68 254.365 730.07 256.364C741.384 264.688 764.75 290.736 770.846 303.62C776.869 309.891 789.192 333.434 793.636 342.078C795.543 345.784 798.34 352.597 800.658 355.767C807.145 371.271 812.984 387.041 818.159 403.029C819.549 410.717 822.233 419.333 824.033 427.056C826.919 439.449 830.097 453.418 831.547 465.978C838.74 493.964 838.369 522.073 839.888 550.485C840.099 554.436 840.343 558.268 840.582 562.024C841.723 579.976 842.755 596.189 839.593 615.304C838.94 619.251 839.086 624.213 839.232 629.204C839.373 633.992 839.514 638.805 838.952 642.776C835.618 676.896 832.49 710.739 826.44 744.53C823.304 762.039 819.978 786.961 815.37 803.89L815.09 804.884C813.317 811.27 810.537 825.146 808.968 832.037C798.953 875.971 786.836 916.754 760.384 954.046C753.67 963.509 742.05 979.258 733.336 986.558C733.807 1010.66 733.641 1036.5 733.482 1061.37C733.442 1067.53 733.403 1073.62 733.374 1079.61L733.344 1233Z"/><path fill="#C76B5C" transform="matrix(0.392962 0 0 0.39335 0 3.05176e-05)" d="M733.344 1233L290.525 1233L290.488 1120.84L290.372 1036.32C290.362 1031.91 290.311 1027.23 290.258 1022.45C290.126 1010.31 289.986 997.47 290.476 986.508C284.72 981.228 275.504 969.704 270.571 963.353C232.443 914.277 222.513 862.729 208.604 804.026C220.478 794.112 248.996 779.076 263.07 772.651C300.494 756.022 339.651 743.607 379.821 735.634C489.684 713.553 623.324 719.965 729.041 759.58C762.455 772.102 785.744 784.707 815.37 803.89L815.09 804.884C813.317 811.27 810.537 825.146 808.968 832.037C798.953 875.971 786.836 916.754 760.384 954.046C753.67 963.509 742.05 979.258 733.336 986.558C733.807 1010.66 733.641 1036.5 733.482 1061.37C733.442 1067.53 733.403 1073.62 733.374 1079.61L733.344 1233Z"/><path fill="#FECF1D" transform="matrix(0.392962 0 0 0.39335 0 3.05176e-05)" d="M733.344 1233L290.525 1233L290.488 1120.84L290.372 1036.32C290.362 1031.91 290.311 1027.23 290.258 1022.45C290.126 1010.31 289.986 997.47 290.476 986.508C308.489 1001.63 324.187 1016.7 345.837 1027.11C348.513 1028.4 353.573 1031 356.007 1032.59C382.187 1045.04 412.413 1053.97 441.382 1058.36C520.145 1070.3 614.406 1063.68 684.656 1023.35C696.096 1016.69 706.881 1009.12 717.124 1000.74C722.521 996.319 727.669 990.436 733.336 986.558C733.807 1010.66 733.641 1036.5 733.482 1061.37C733.442 1067.53 733.403 1073.62 733.374 1079.61L733.344 1233Z"/><path fill="#C76B5C" transform="matrix(0.392962 0 0 0.39335 0 3.05176e-05)" d="M733.344 1233L630.542 1233C628.276 1211.05 629.836 1189.01 638.982 1167.41C652.854 1134.63 683.99 1112.14 712.473 1092.49C716.702 1089.58 728.839 1081.38 733.374 1079.61L733.344 1233Z"/><path fill="#AE5647" transform="matrix(0.392962 0 0 0.39335 0 3.05176e-05)" d="M355.825 1233L290.525 1233L290.488 1120.84C295.76 1122.26 319.173 1139.07 325.168 1143.06C335.323 1149.72 345.525 1156.3 355.777 1162.8L356.012 1163.42C355.183 1169.15 355.523 1193.95 355.692 1206.31C355.719 1208.29 355.742 1209.95 355.755 1211.16C355.832 1218.4 355.845 1225.69 355.825 1233Z"/><path fill="#C76B5C" transform="matrix(0.392962 0 0 0.39335 0 3.05176e-05)" d="M424.57 1233L355.825 1233C355.845 1225.69 355.832 1218.4 355.755 1211.16C355.742 1209.95 355.719 1208.29 355.692 1206.31C355.523 1193.95 355.183 1169.15 356.012 1163.42C394.821 1187.97 415.155 1206.46 424.57 1233Z"/><path fill="#EDB000" transform="matrix(0.392962 0 0 0.39335 0 3.05176e-05)" d="M345.837 1027.11C324.187 1016.7 308.489 1001.63 290.476 986.508C289.986 997.47 290.126 1010.31 290.258 1022.45C290.311 1027.23 290.362 1031.91 290.372 1036.32L290.488 1120.84C295.76 1122.26 319.173 1139.07 325.168 1143.06C335.323 1149.72 345.525 1156.3 355.777 1162.8C355.34 1148.33 355.488 1133.01 355.636 1117.74C355.754 1105.56 355.872 1093.4 355.692 1081.73C355.543 1072.04 355.089 1040.65 356.007 1032.59C353.573 1031 348.513 1028.4 345.837 1027.11Z"/><path fill="#3B484A" transform="matrix(0.392962 0 0 0.39335 0 3.05176e-05)" d="M414.932 984.566C445.925 971.573 426.776 898.702 392.24 900.921C370.184 910.629 375.052 943.99 383.748 961.472C390.021 974.077 399.474 985.917 414.932 984.566Z"/><path fill="#3B484A" transform="matrix(0.392962 0 0 0.39335 0 3.05176e-05)" d="M615.922 984.697C652.594 973.797 659.305 896.905 625.405 900.883C590.402 909.719 580.25 987.62 615.922 984.697Z"/><path fill="#EDB000" transform="matrix(0.392962 0 0 0.39335 0 3.05176e-05)" d="M276.609 17.6503L257.299 17.6503L256.114 18.1367C252.86 19.4509 247.251 20.8873 244.499 22.287C236.461 26.3762 226.897 36.0756 223.51 44.5317C218.546 56.9151 218.566 71.6864 223.396 84.1314C227.192 93.9084 235.997 98.0849 237.901 103.373C244.325 140.529 260.331 185.398 275.29 219.935C279.547 229.77 287.661 247.378 293.414 256.033L293.563 256.261C279.139 270.009 263.204 285.867 252.792 303.028C228.541 277.024 184.134 244.644 151.847 229.197C139.012 223.195 125.687 218.304 112.017 214.576C111.783 214.513 111.54 214.447 111.288 214.379C105.423 212.791 94.9163 209.946 89.6432 210.086C76.9302 210.421 62.1864 215.849 53.2665 224.963C40.7343 237.767 38.2573 252.132 37.7549 269.207C37.697 271.174 37.4697 273.346 37.2411 275.53C36.9438 278.371 36.6442 281.233 36.7114 283.701C36.8643 289.319 37.5011 295.383 37.9335 301.013C38.4406 307.619 38.2142 315.902 39.221 322.299C45.1491 359.965 59.3928 392.131 87.3286 418.582C111.075 441.063 139.236 454.021 170.653 461.896C176.181 463.28 184.827 465.799 190.209 466.086C188.232 482.657 184.807 500.028 184.633 516.715C185.091 522.296 184.238 528.43 183.399 534.463C182.666 539.734 181.944 544.928 182.116 549.61C182.34 555.738 182.149 562.367 181.956 569.056C181.682 578.566 181.404 588.2 182.31 596.698C183.952 612.089 184.015 626.727 185.105 641.84C189.354 696.362 197.203 750.543 208.604 804.026C220.478 794.112 248.996 779.076 263.07 772.651C262.961 772.273 262.853 771.898 262.747 771.522C236.133 631.447 227.538 439.197 304.653 315.945C324.301 284.205 350.319 256.881 381.062 235.7C386.119 232.229 394.679 226.25 400.299 224.96C404.44 212.977 408.874 205.426 412.753 195.128C397.234 199.243 365.072 208.526 352.15 217.237C350.055 211.412 346.68 205.715 344.491 200.165C339.951 188.642 334.001 176.246 329.834 164.773C324.006 148.459 318.777 131.937 314.164 115.239C311.743 106.539 309.869 97.6028 307.099 89.0946C316.361 79.623 315.16 58.02 310.409 46.4929C302.398 27.0569 294.529 25.8241 277.555 18.0903L276.609 17.6503Z"/><path fill="#C76B5C" transform="matrix(0.392962 0 0 0.39335 0 3.05176e-05)" d="M276.609 17.6503L257.299 17.6503L256.114 18.1367C252.86 19.4509 247.251 20.8873 244.499 22.287C236.461 26.3762 226.897 36.0756 223.51 44.5317C218.546 56.9151 218.566 71.6864 223.396 84.1314C227.192 93.9084 235.997 98.0849 237.901 103.373L238.494 102.463C248.378 107.317 254.146 110.846 265.701 111.035C279.176 111.256 290.004 106.756 299.543 97.2667C301.934 94.887 304.05 91.9875 306.232 89.9053L307.099 89.0946C316.361 79.623 315.16 58.02 310.409 46.4929C302.398 27.0569 294.529 25.8241 277.555 18.0903L276.609 17.6503Z"/><path fill="#C76B5C" transform="matrix(0.392962 0 0 0.39335 0 3.05176e-05)" d="M126.416 292.864C124.827 292.876 123.19 293.106 121.617 293.292C99.8754 300.529 103.109 317.085 109.091 334.133C125.238 380.154 161.21 393.158 204.616 402.843C206.987 398.327 210.967 385.555 212.924 380.013C215.883 371.627 219.757 363.427 222.71 355.366C208.73 342.58 143.052 292.74 126.416 292.864Z"/><defs><linearGradient id="gradient_0" gradientUnits="userSpaceOnUse" x1="211.981" y1="78.4151" x2="304.16" y2="92.494003"><stop offset="0" stop-color="#B75E4E"/><stop offset="1" stop-color="#D27566"/></linearGradient></defs><path fill="url(#gradient_0)" transform="matrix(0.392962 0 0 0.39335 0 3.05176e-05)" d="M426.562 176.065C421.407 181.645 417.124 188.805 412.753 195.128C408.874 205.426 404.44 212.977 400.299 224.96C395.451 243.454 388.54 278.635 397.635 296.54C402.395 305.784 410.647 312.745 420.564 315.88C436.971 321.061 454.074 315.426 464.284 301.674C469.088 295.199 470.796 289.233 473.106 281.595C474.12 289.044 474.738 292.99 478.983 299.581C484.638 308.371 493.609 314.498 503.856 316.566C514.392 318.774 525.371 316.626 534.294 310.612C544.809 303.431 548.842 294.581 551.102 282.48C553.049 289.034 554.658 294.251 558.517 300.002C564.441 308.82 573.663 314.886 584.104 316.838C594.41 318.784 605.066 316.508 613.674 310.517C620.625 305.68 625.806 298.703 628.429 290.652C631.497 281.027 630.688 270.687 629.908 260.731L629.892 260.524C628.815 246.757 625.993 232.951 621.485 219.885C618.809 212.125 615.102 204.801 611.873 197.269C611.984 196.679 612.093 196.088 612.201 195.497C609.535 193.904 600.97 180.19 597.802 176.517C586.279 163.158 571.799 154.108 556.07 146.279C511.33 124.005 459.123 140.831 426.562 176.065Z"/><path fill="#3B484A" transform="matrix(0.392962 0 0 0.39335 0 3.05176e-05)" d="M315.99 623.802C312.426 622.375 308.883 621.953 305.087 622.256C288.209 627.377 288.448 638.373 288.733 651.481C288.801 654.606 288.871 657.851 288.713 661.165C287.921 677.796 288.153 699.403 311.44 697.373C317.342 695.369 322.507 692.809 325.254 686.836C328.785 679.158 328.591 641.013 325.272 633.25C323.473 629.039 320.288 625.519 315.99 623.802Z"/><path fill="#3B484A" transform="matrix(0.392962 0 0 0.39335 0 3.05176e-05)" d="M735.283 654.735C736.486 638.716 733.732 620.751 713.063 622.236C707.267 623.958 701.935 626.512 699.05 632.173C695.549 639.041 695.395 676.553 698.061 684.539C699.66 689.324 702.783 693.472 707.449 695.603C711.33 697.373 715.545 697.814 719.734 697.219C736.274 691.448 735.815 679.953 735.295 666.943C735.137 662.975 734.973 658.866 735.283 654.735Z"/><path fill="#EDB000" transform="matrix(0.392962 0 0 0.39335 0 3.05176e-05)" d="M870.295 230.138C841.174 244.346 792.1 278.963 770.846 303.62C776.869 309.891 789.192 333.434 793.636 342.078C795.543 345.784 798.34 352.597 800.658 355.767C807.145 371.271 812.984 387.041 818.159 403.029C819.549 410.717 822.233 419.333 824.033 427.056C826.919 439.449 830.097 453.418 831.547 465.978C837.42 466.282 845.124 464.138 851.92 462.248C854.311 461.582 856.59 460.948 858.638 460.463C933.702 442.682 985.596 379.819 986.047 302.584C986.065 299.544 986.34 296.509 986.617 293.444C987.001 289.186 987.391 284.869 987.107 280.398C985.667 259.741 986.58 237.926 969.04 223.301C950.583 207.911 935.158 208.513 913.469 214.265C898.614 218.199 884.159 223.513 870.295 230.138Z"/><path fill="#C76B5C" transform="matrix(0.392962 0 0 0.39335 0 3.05176e-05)" d="M898.518 292.854C881.347 292.057 815.604 342.665 800.658 355.767C807.145 371.271 812.984 387.041 818.159 403.029C841.197 398.324 865.591 392.346 884.384 377.441C901.648 363.752 917.278 339.229 919.424 316.999C919.999 311.044 918.423 305.267 914.433 300.743C910.463 296.242 904.546 293.134 898.518 292.854Z"/><path fill="#EDB000" transform="matrix(0.392962 0 0 0.39335 0 3.05176e-05)" d="M767.151 17.6503L747.236 17.6503C745.556 18.6118 745.465 18.4347 743.849 19.0114C733.742 22.6202 723.374 27.6905 718.011 37.5306C711.719 48.8873 707.388 63.3386 711.186 75.9999C712.382 79.9783 714.468 86.2701 717.013 89.2936C714.453 96.329 713.136 103.073 711.244 110.307C708.901 119.018 706.417 127.691 703.794 136.323C694.717 165.702 684.53 189.748 671.452 217.274C685.39 224.746 696.732 231.466 709.552 240.573C714.216 243.887 726.68 254.365 730.07 256.364C733.23 253.43 738.237 242.771 740.355 238.431C761.875 194.347 776.44 149.702 786.582 101.87C791.586 97.0779 798.479 90.3279 800.741 84.0479C808.212 63.3126 804.539 39.6721 785.691 26.3575C778.982 21.6173 774.339 20.5884 767.151 17.6503Z"/><path fill="#C76B5C" transform="matrix(0.392962 0 0 0.39335 0 3.05176e-05)" d="M767.151 17.6503L747.236 17.6503C745.556 18.6118 745.465 18.4347 743.849 19.0114C733.742 22.6202 723.374 27.6905 718.011 37.5306C711.719 48.8873 707.388 63.3386 711.186 75.9999C712.382 79.9783 714.468 86.2701 717.013 89.2936C719.865 92.2147 724.014 97.275 726.784 99.7166C735.112 106.928 745.733 110.945 756.752 111.05C768.243 111.15 776.68 107.119 786.582 101.87C791.586 97.0779 798.479 90.3279 800.741 84.0479C808.212 63.3126 804.539 39.6721 785.691 26.3575C778.982 21.6173 774.339 20.5884 767.151 17.6503Z"/></g></svg>